<svg width="414" height="480" viewBox="0 0 414 480" fill="none" xmlns="http://www.w3.org/2000/svg">
<path fill-rule="evenodd" clip-rule="evenodd" d="M85.6192 26.7451C85.6192 19.7832 82.8536 13.1064 77.9308 8.18356C73.0079 3.26073 66.3312 0.495117 59.3692 0.495117C52.4073 0.495117 45.7305 3.26073 40.8077 8.18356C35.8848 13.1064 33.1192 19.7832 33.1192 26.7451V246.545H26.5742C19.6123 246.545 12.9355 249.311 8.01267 254.234C3.08984 259.156 0.324219 265.833 0.324219 272.795C0.324219 279.757 3.08984 286.434 8.01267 291.357C12.9355 296.28 19.6123 299.045 26.5742 299.045H51.2142L160.659 374.295L77.2892 431.59C71.5526 435.535 67.6181 441.598 66.3513 448.444C65.724 451.833 65.7706 455.314 66.4883 458.685C67.206 462.057 68.5808 465.255 70.5342 468.095C72.4876 470.936 74.9814 473.364 77.8731 475.24C80.7649 477.117 83.9979 478.406 87.3877 479.033C94.2337 480.3 101.303 478.795 107.039 474.85L206.999 406.145L306.959 474.85C309.8 476.804 312.997 478.178 316.369 478.896C319.741 479.614 323.221 479.66 326.611 479.033C330.001 478.406 333.234 477.117 336.125 475.24C339.017 473.364 341.511 470.936 343.464 468.095C345.418 465.255 346.792 462.057 347.51 458.685C348.228 455.314 348.274 451.833 347.647 448.444C347.02 445.054 345.731 441.821 343.854 438.929C341.978 436.037 339.55 433.544 336.709 431.59L253.339 374.295L362.784 299.045H387.424C394.386 299.045 401.063 296.28 405.986 291.357C410.909 286.434 413.674 279.757 413.674 272.795C413.674 265.833 410.909 259.156 405.986 254.234C401.063 249.311 394.386 246.545 387.424 246.545H380.879V26.7451C380.879 19.7832 378.114 13.1064 373.191 8.18356C368.268 3.26073 361.591 0.495117 354.629 0.495117C347.667 0.495117 340.991 3.26073 336.068 8.18356C331.145 13.1064 328.379 19.7832 328.379 26.7451H85.6192ZM270.104 299.045H143.894L206.999 342.445L270.104 299.045ZM85.6192 175.04V246.545H328.379V175.04H85.6192Z" fill="black"/>
</svg>
