<svg width="46" height="46" viewBox="0 0 46 46" fill="none" xmlns="http://www.w3.org/2000/svg">
<path d="M23 43.7192C21.6775 43.7192 20.4317 43.0484 19.55 41.8792L16.675 38.0459C16.6175 37.9692 16.3875 37.8734 16.2917 37.8542H15.3334C7.34087 37.8542 2.39587 35.6884 2.39587 24.9167V15.3334C2.39587 6.86171 6.86171 2.39587 15.3334 2.39587H30.6667C39.1384 2.39587 43.6042 6.86171 43.6042 15.3334V24.9167C43.6042 33.3884 39.1384 37.8542 30.6667 37.8542H29.7084C29.555 37.8542 29.4209 37.9309 29.325 38.0459L26.45 41.8792C25.5684 43.0484 24.3225 43.7192 23 43.7192ZM15.3334 5.27087C8.47171 5.27087 5.27087 8.47171 5.27087 15.3334V24.9167C5.27087 33.58 8.24171 34.9792 15.3334 34.9792H16.2917C17.2692 34.9792 18.3809 35.535 18.975 36.3209L21.85 40.1542C22.5209 41.0359 23.4792 41.0359 24.15 40.1542L27.025 36.3209C27.6575 35.4775 28.6542 34.9792 29.7084 34.9792H30.6667C37.5284 34.9792 40.7292 31.7784 40.7292 24.9167V15.3334C40.7292 8.47171 37.5284 5.27087 30.6667 5.27087H15.3334Z" fill="black"/>
<path d="M23 23C21.9267 23 21.0834 22.1375 21.0834 21.0833C21.0834 20.0291 21.9459 19.1666 23 19.1666C24.0542 19.1666 24.9167 20.0291 24.9167 21.0833C24.9167 22.1375 24.0734 23 23 23Z" fill="black"/>
<path d="M30.6667 23C29.5933 23 28.75 22.1375 28.75 21.0833C28.75 20.0291 29.6125 19.1666 30.6667 19.1666C31.7208 19.1666 32.5833 20.0291 32.5833 21.0833C32.5833 22.1375 31.74 23 30.6667 23Z" fill="black"/>
<path d="M15.3333 23C14.26 23 13.4166 22.1375 13.4166 21.0833C13.4166 20.0291 14.2791 19.1666 15.3333 19.1666C16.3875 19.1666 17.25 20.0291 17.25 21.0833C17.25 22.1375 16.4066 23 15.3333 23Z" fill="black"/>
</svg>
