<svg width="46" height="46" viewBox="0 0 46 46" fill="none" xmlns="http://www.w3.org/2000/svg">
<path d="M21.0833 39.7709C10.7716 39.7709 2.39581 31.395 2.39581 21.0834C2.39581 10.7717 10.7716 2.39587 21.0833 2.39587C31.395 2.39587 39.7708 10.7717 39.7708 21.0834C39.7708 31.395 31.395 39.7709 21.0833 39.7709ZM21.0833 5.27087C12.3625 5.27087 5.27081 12.3625 5.27081 21.0834C5.27081 29.8042 12.3625 36.8959 21.0833 36.8959C29.8041 36.8959 36.8958 29.8042 36.8958 21.0834C36.8958 12.3625 29.8041 5.27087 21.0833 5.27087Z" fill="black"/>
<path d="M38.64 43.6808C38.4867 43.6808 38.3334 43.6617 38.1992 43.6425C37.2984 43.5275 35.6692 42.9142 34.7492 40.1733C34.27 38.7358 34.4425 37.2983 35.2284 36.2058C36.0142 35.1133 37.3367 34.5 38.8509 34.5C40.8059 34.5 42.3392 35.2475 43.0292 36.57C43.7192 37.8925 43.5275 39.5792 42.435 41.2083C41.0742 43.2592 39.5984 43.6808 38.64 43.6808ZM37.49 39.2725C37.8159 40.2692 38.2759 40.7675 38.5825 40.8058C38.8892 40.8442 39.4642 40.48 40.0584 39.6175C40.6142 38.7933 40.6525 38.1992 40.5184 37.9308C40.3842 37.6625 39.8475 37.375 38.8509 37.375C38.2567 37.375 37.8159 37.5667 37.5667 37.8925C37.3367 38.2183 37.2984 38.7167 37.49 39.2725Z" fill="black"/>
</svg>
