<svg width="46" height="46" viewBox="0 0 46 46" fill="none" xmlns="http://www.w3.org/2000/svg">
<path d="M23 36.8958C15.3333 36.8958 9.10413 30.6666 9.10413 23C9.10413 15.3333 15.3333 9.10413 23 9.10413C30.6666 9.10413 36.8958 15.3333 36.8958 23C36.8958 30.6666 30.6666 36.8958 23 36.8958ZM23 11.9791C16.9241 11.9791 11.9791 16.9241 11.9791 23C11.9791 29.0758 16.9241 34.0208 23 34.0208C29.0758 34.0208 34.0208 29.0758 34.0208 23C34.0208 16.9241 29.0758 11.9791 23 11.9791Z" fill="black"/>
<path d="M23.0833 44.09C22.0292 44.09 21.1667 43.3042 21.1667 42.25V42.0967C21.1667 41.0425 22.0292 40.18 23.0833 40.18C24.1375 40.18 25 41.0425 25 42.0967C25 43.1508 24.1375 44.09 23.0833 44.09ZM36.7683 38.685C36.27 38.685 35.7908 38.4933 35.4075 38.1292L35.1583 37.88C34.4108 37.1325 34.4108 35.925 35.1583 35.1775C35.9058 34.43 37.1133 34.43 37.8608 35.1775L38.11 35.4267C38.8575 36.1742 38.8575 37.3817 38.11 38.1292C37.7458 38.4933 37.2667 38.685 36.7683 38.685ZM9.39833 38.685C8.9 38.685 8.42083 38.4933 8.0375 38.1292C7.29 37.3817 7.29 36.1742 8.0375 35.4267L8.28667 35.1775C9.03417 34.43 10.2417 34.43 10.9892 35.1775C11.7367 35.925 11.7367 37.1325 10.9892 37.88L10.74 38.1292C10.3758 38.4933 9.8775 38.685 9.39833 38.685ZM42.25 25H42.0967C41.0425 25 40.18 24.1375 40.18 23.0833C40.18 22.0292 41.0425 21.1667 42.0967 21.1667C43.1508 21.1667 44.09 22.0292 44.09 23.0833C44.09 24.1375 43.3042 25 42.25 25ZM4.07 25H3.91667C2.8625 25 2 24.1375 2 23.0833C2 22.0292 2.8625 21.1667 3.91667 21.1667C4.97083 21.1667 5.91 22.0292 5.91 23.0833C5.91 24.1375 5.12417 25 4.07 25ZM36.5192 11.5642C36.0208 11.5642 35.5417 11.3725 35.1583 11.0083C34.4108 10.2608 34.4108 9.05333 35.1583 8.30583L35.4075 8.05667C36.155 7.30917 37.3625 7.30917 38.11 8.05667C38.8575 8.80417 38.8575 10.0117 38.11 10.7592L37.8608 11.0083C37.4967 11.3725 37.0175 11.5642 36.5192 11.5642ZM9.6475 11.5642C9.14917 11.5642 8.67 11.3725 8.28667 11.0083L8.0375 10.74C7.29 9.9925 7.29 8.785 8.0375 8.0375C8.785 7.29 9.9925 7.29 10.74 8.0375L10.9892 8.28667C11.7367 9.03417 11.7367 10.2417 10.9892 10.9892C10.625 11.3725 10.1267 11.5642 9.6475 11.5642ZM23.0833 5.91C22.0292 5.91 21.1667 5.12417 21.1667 4.07V3.91667C21.1667 2.8625 22.0292 2 23.0833 2C24.1375 2 25 2.8625 25 3.91667C25 4.97083 24.1375 5.91 23.0833 5.91Z" fill="black"/>
</svg>
